<svg
      width="482"
      height="474"
      viewBox="0 0 482 474"
      fill="none"
      xmlns="http://www.w3.org/2000/svg"
    >
      <path
        d="M193.608 375.668H187.339C186.84 375.669 186.354 375.514 185.947 375.226C185.54 374.939 185.233 374.531 185.068 374.061C184.588 372.683 184.02 371.337 183.368 370.032C183.143 369.581 183.067 369.07 183.149 368.572C183.231 368.074 183.467 367.614 183.825 367.259L188.282 362.803C188.734 362.35 188.988 361.736 188.988 361.095C188.988 360.455 188.734 359.84 188.282 359.387L178.655 349.767C178.201 349.315 177.587 349.06 176.946 349.06C176.306 349.06 175.691 349.315 175.238 349.767L170.702 354.304C170.349 354.658 169.894 354.893 169.401 354.976C168.908 355.06 168.401 354.987 167.951 354.768C166.67 354.143 165.351 353.599 164.002 353.141C163.527 352.979 163.114 352.672 162.822 352.263C162.53 351.854 162.373 351.365 162.374 350.862V344.436C162.374 344.119 162.312 343.805 162.191 343.512C162.069 343.219 161.892 342.953 161.667 342.729C161.443 342.505 161.177 342.327 160.884 342.206C160.591 342.085 160.277 342.022 159.96 342.022H146.35C146.033 342.022 145.719 342.085 145.426 342.206C145.133 342.327 144.867 342.505 144.643 342.729C144.419 342.953 144.241 343.219 144.12 343.512C143.998 343.805 143.936 344.119 143.936 344.436V350.862C143.937 351.365 143.781 351.854 143.489 352.263C143.197 352.672 142.784 352.979 142.309 353.141C140.96 353.599 139.641 354.143 138.36 354.768C137.91 354.987 137.403 355.06 136.91 354.977C136.417 354.893 135.962 354.658 135.608 354.304L131.072 349.767C130.619 349.315 130.004 349.06 129.364 349.06C128.723 349.06 128.109 349.315 127.656 349.767L118.029 359.389C117.577 359.842 117.322 360.456 117.322 361.097C117.322 361.738 117.577 362.352 118.029 362.805L122.485 367.261C122.843 367.616 123.08 368.076 123.162 368.573C123.244 369.071 123.167 369.582 122.942 370.034C122.29 371.339 121.723 372.685 121.246 374.063C121.08 374.533 120.772 374.94 120.365 375.228C119.957 375.516 119.471 375.67 118.972 375.67H112.702C112.385 375.67 112.071 375.732 111.778 375.853C111.485 375.975 111.219 376.152 110.994 376.377C110.77 376.601 110.592 376.867 110.471 377.16C110.35 377.453 110.287 377.767 110.288 378.084V391.696C110.287 392.013 110.35 392.327 110.471 392.62C110.592 392.913 110.77 393.179 110.994 393.403C111.219 393.627 111.485 393.805 111.778 393.926C112.071 394.048 112.385 394.11 112.702 394.11H118.808C119.316 394.109 119.811 394.269 120.223 394.567C120.634 394.865 120.941 395.285 121.1 395.767C121.571 397.182 122.134 398.565 122.787 399.906C123.008 400.358 123.083 400.867 123.001 401.364C122.919 401.86 122.685 402.318 122.33 402.675L118.031 406.975C117.806 407.199 117.628 407.464 117.507 407.757C117.386 408.05 117.323 408.363 117.323 408.68C117.323 408.997 117.386 409.311 117.507 409.604C117.628 409.896 117.806 410.162 118.031 410.386L127.657 420.012C128.11 420.465 128.724 420.72 129.365 420.72C130.006 420.72 130.62 420.465 131.073 420.012L135.288 415.797C135.647 415.439 136.11 415.203 136.611 415.123C137.112 415.043 137.625 415.122 138.078 415.35C139.442 416.031 140.85 416.618 142.294 417.108C142.772 417.27 143.188 417.577 143.483 417.988C143.778 418.398 143.937 418.89 143.938 419.395V425.339C143.937 425.657 144 425.971 144.121 426.264C144.242 426.557 144.42 426.824 144.644 427.048C144.868 427.273 145.134 427.451 145.427 427.573C145.72 427.694 146.035 427.757 146.352 427.757H159.96C160.278 427.757 160.592 427.694 160.885 427.573C161.178 427.451 161.444 427.273 161.668 427.049C161.893 426.824 162.07 426.557 162.192 426.264C162.313 425.971 162.375 425.657 162.374 425.339V419.395C162.375 418.89 162.534 418.398 162.829 417.988C163.124 417.577 163.54 417.27 164.019 417.108C165.462 416.618 166.87 416.031 168.234 415.35C168.687 415.122 169.201 415.043 169.701 415.123C170.202 415.203 170.665 415.439 171.024 415.797L175.239 420.012C175.692 420.465 176.306 420.72 176.947 420.72C177.588 420.72 178.202 420.465 178.655 420.012L188.282 410.386C188.506 410.162 188.684 409.896 188.805 409.603C188.927 409.311 188.989 408.997 188.989 408.68C188.989 408.364 188.927 408.05 188.805 407.757C188.684 407.465 188.506 407.199 188.282 406.975L183.982 402.675C183.628 402.318 183.393 401.86 183.311 401.364C183.229 400.867 183.304 400.358 183.526 399.906C184.178 398.565 184.742 397.182 185.213 395.767C185.371 395.285 185.678 394.865 186.09 394.567C186.501 394.27 186.996 394.11 187.504 394.11H193.609C193.926 394.11 194.24 394.048 194.533 393.926C194.826 393.805 195.092 393.627 195.316 393.403C195.54 393.179 195.718 392.913 195.839 392.62C195.96 392.327 196.023 392.013 196.023 391.696V378.084C196.023 377.766 195.961 377.452 195.84 377.159C195.718 376.866 195.541 376.6 195.316 376.375C195.092 376.151 194.826 375.973 194.533 375.851C194.24 375.73 193.925 375.668 193.608 375.668ZM153.157 405.005C149.178 405.005 145.289 403.825 141.98 401.614C138.672 399.404 136.094 396.262 134.571 392.587C133.048 388.911 132.65 384.866 133.426 380.964C134.202 377.062 136.118 373.477 138.932 370.664C141.745 367.851 145.33 365.935 149.232 365.159C153.135 364.382 157.18 364.781 160.856 366.303C164.532 367.826 167.673 370.404 169.884 373.712C172.094 377.02 173.274 380.91 173.274 384.888C173.274 390.224 171.155 395.34 167.382 399.113C163.609 402.885 158.492 405.005 153.157 405.005Z"
        fill="#F4F4F4"
      />
      <path
        d="M115.303 294.575H106.768C106.09 294.576 105.428 294.366 104.874 293.974C104.32 293.583 103.902 293.028 103.677 292.388C103.023 290.512 102.251 288.68 101.363 286.903C101.057 286.288 100.952 285.592 101.063 284.915C101.175 284.237 101.497 283.611 101.984 283.127L108.051 277.061C108.668 276.444 109.014 275.608 109.014 274.736C109.014 273.864 108.668 273.027 108.051 272.411L94.9452 259.311C94.3282 258.695 93.4918 258.349 92.6198 258.349C91.7477 258.349 90.9113 258.695 90.2944 259.311L84.1185 265.487C83.6378 265.969 83.0182 266.29 82.3464 266.403C81.6746 266.517 80.9841 266.418 80.3715 266.119C78.6283 265.268 76.8328 264.528 74.996 263.904C74.3488 263.683 73.7869 263.265 73.3894 262.709C72.9919 262.153 72.7788 261.486 72.7801 260.802V252.053C72.7802 251.622 72.6952 251.194 72.5301 250.796C72.3649 250.397 72.1228 250.034 71.8176 249.729C71.5124 249.424 71.1501 249.182 70.7513 249.017C70.3525 248.852 69.9251 248.767 69.4934 248.767H50.9659C50.5343 248.767 50.1069 248.852 49.7081 249.017C49.3093 249.182 48.9469 249.424 48.6417 249.729C48.3365 250.034 48.0944 250.397 47.9293 250.796C47.7642 251.194 47.6792 251.622 47.6793 252.053V260.802C47.6805 261.486 47.4674 262.153 47.0699 262.709C46.6725 263.265 46.1106 263.683 45.4633 263.904C43.6263 264.528 41.8307 265.268 40.0873 266.119C39.4746 266.418 38.784 266.517 38.112 266.404C37.4401 266.29 36.8204 265.969 36.3396 265.487L30.1638 259.311C29.5468 258.695 28.7104 258.349 27.8383 258.349C26.9663 258.349 26.1299 258.695 25.5129 259.311L12.4073 272.411C11.791 273.027 11.4448 273.864 11.4448 274.736C11.4448 275.608 11.791 276.444 12.4073 277.061L18.4737 283.127C18.9612 283.611 19.2836 284.237 19.3953 284.914C19.5069 285.592 19.4021 286.288 19.0956 286.903C18.2076 288.679 17.4366 290.511 16.7873 292.388C16.5607 293.028 16.1412 293.582 15.5866 293.974C15.0321 294.365 14.3697 294.576 13.6908 294.575H5.1553C4.72367 294.575 4.29623 294.66 3.89741 294.825C3.49859 294.99 3.1362 295.232 2.83097 295.537C2.52573 295.842 2.28364 296.205 2.11852 296.603C1.9534 297.002 1.86849 297.429 1.86865 297.861V316.394C1.86841 316.825 1.95326 317.253 2.11834 317.652C2.28343 318.051 2.52551 318.413 2.83075 318.718C3.13599 319.023 3.4984 319.266 3.89727 319.431C4.29613 319.596 4.72362 319.681 5.1553 319.68H13.4664C14.1576 319.68 14.8312 319.898 15.3912 320.303C15.9512 320.708 16.369 321.28 16.5849 321.936C17.226 323.863 17.9932 325.746 18.8815 327.571C19.1828 328.186 19.2849 328.88 19.1734 329.556C19.0619 330.231 18.7425 330.855 18.2597 331.341L12.4061 337.194C12.1007 337.499 11.8584 337.861 11.693 338.26C11.5277 338.659 11.4426 339.086 11.4426 339.518C11.4426 339.949 11.5277 340.377 11.693 340.775C11.8584 341.174 12.1007 341.536 12.4061 341.841L25.5117 354.946C26.1287 355.563 26.9651 355.909 27.8371 355.909C28.7092 355.909 29.5456 355.563 30.1625 354.946L35.9012 349.208C36.3901 348.72 37.0201 348.399 37.702 348.289C38.3838 348.179 39.0829 348.287 39.7002 348.596C41.5565 349.524 43.4738 350.324 45.4389 350.99C46.0903 351.211 46.6565 351.63 47.0579 352.188C47.4594 352.746 47.676 353.417 47.6774 354.104V362.197C47.6768 362.629 47.7613 363.057 47.9262 363.456C48.0911 363.855 48.3331 364.218 48.6383 364.524C48.9436 364.83 49.3061 365.072 49.7052 365.238C50.1042 365.403 50.532 365.489 50.9641 365.489H69.4916C69.9236 365.489 70.3514 365.403 70.7505 365.238C71.1496 365.072 71.5121 364.83 71.8174 364.524C72.1226 364.218 72.3646 363.855 72.5295 363.456C72.6944 363.057 72.7789 362.629 72.7782 362.197V354.104C72.7795 353.416 72.9961 352.746 73.3975 352.188C73.799 351.629 74.3653 351.211 75.0168 350.99C76.9818 350.323 78.8991 349.524 80.7555 348.596C81.3727 348.287 82.0718 348.179 82.7537 348.289C83.4356 348.399 84.0656 348.72 84.5545 349.208L90.2925 354.946C90.9095 355.563 91.7459 355.909 92.618 355.909C93.49 355.909 94.3264 355.563 94.9434 354.946L108.05 341.841C108.355 341.536 108.597 341.174 108.763 340.775C108.928 340.377 109.013 339.949 109.013 339.518C109.013 339.086 108.928 338.659 108.763 338.26C108.597 337.861 108.355 337.499 108.05 337.194L102.196 331.341C101.713 330.855 101.394 330.231 101.282 329.556C101.171 328.88 101.273 328.186 101.574 327.571C102.462 325.745 103.229 323.863 103.871 321.936C104.087 321.28 104.504 320.708 105.064 320.303C105.624 319.898 106.298 319.68 106.989 319.68H115.3C115.732 319.681 116.16 319.596 116.558 319.431C116.957 319.266 117.32 319.023 117.625 318.718C117.93 318.413 118.172 318.051 118.337 317.652C118.502 317.253 118.587 316.825 118.587 316.394V297.861C118.587 297.43 118.502 297.003 118.337 296.604C118.173 296.205 117.931 295.843 117.626 295.538C117.321 295.233 116.959 294.991 116.56 294.826C116.162 294.66 115.735 294.575 115.303 294.575ZM60.2297 334.513C54.8126 334.513 49.5172 332.906 45.013 329.897C40.5088 326.888 36.9982 322.61 34.9251 317.606C32.8521 312.602 32.3096 307.095 33.3664 301.782C34.4232 296.469 37.0317 291.589 40.8622 287.759C44.6926 283.929 49.5729 281.32 54.8859 280.264C60.1989 279.207 65.7059 279.749 70.7106 281.822C75.7153 283.895 79.9929 287.406 83.0024 291.91C86.0118 296.414 87.6181 301.709 87.618 307.126C87.6176 314.389 84.732 321.355 79.5958 326.491C74.4595 331.627 67.4934 334.512 60.2297 334.513Z"
        fill="#F4F4F4"
      />
      <path
        d="M66.7132 350.321L65.6574 350.436L78.6929 469.553L79.7488 469.438L66.7132 350.321Z"
        fill="#292A2E"
      />
      <path
        d="M100.475 402.324L94.0622 465.763L95.1189 465.87L101.532 402.43L100.475 402.324Z"
        fill="#292A2E"
      />
      <path
        d="M111.503 458.094H63.9186V473.536H111.503V458.094Z"
        fill="#292A2E"
      />
      <path
        opacity="0.2"
        d="M111.503 458.094H63.9186V473.536H111.503V458.094Z"
        fill="white"
      />
      <path
        d="M140.19 429.661C149.204 417.681 144.907 399.239 130.592 388.468C116.277 377.698 97.3648 378.679 88.3505 390.659C79.3362 402.639 83.6334 421.082 97.9485 431.852C112.264 442.622 131.176 441.641 140.19 429.661Z"
        fill="#0CBC8B"
      />
      <path
        opacity="0.2"
        d="M140.19 429.661C149.204 417.681 144.907 399.239 130.592 388.468C116.277 377.698 97.3648 378.679 88.3505 390.659C79.3362 402.639 83.6334 421.082 97.9485 431.852C112.264 442.622 131.176 441.641 140.19 429.661Z"
        fill="white"
      />
      <path
        opacity="0.5"
        d="M140.188 429.663C139.582 430.471 138.922 431.237 138.211 431.954C128.288 438.292 113.641 437.295 102.022 428.551C87.7084 417.783 83.4123 399.341 92.4278 387.361C93.0336 386.554 93.6924 385.789 94.3997 385.07C104.328 378.726 118.969 379.729 130.593 388.468C144.906 399.24 149.203 417.683 140.188 429.663Z"
        fill="white"
      />
      <path
        d="M73.7808 384.209C87.9619 373.263 91.8162 354.491 82.3896 342.279C72.963 330.068 53.8252 329.042 39.644 339.988C25.4629 350.934 21.6086 369.707 31.0352 381.918C40.4618 394.13 59.5996 395.155 73.7808 384.209Z"
        fill="#0CBC8B"
      />
      <path
        opacity="0.2"
        d="M69.2892 381.069C58.3066 389.552 44.3492 390.844 34.2318 385.322C33.061 384.291 31.9916 383.15 31.0381 381.915C21.6099 369.707 25.464 350.932 39.6446 339.988C50.6271 331.51 64.5845 330.213 74.697 335.73C75.8705 336.762 76.9414 337.905 77.895 339.142C87.3238 351.35 83.4697 370.125 69.2892 381.069Z"
        fill="white"
      />
      <path
        d="M449.377 271.49H289.791C285.994 271.49 282.916 274.568 282.916 278.365V357.547C282.916 361.343 285.994 364.421 289.791 364.421H449.377C453.174 364.421 456.252 361.343 456.252 357.547V278.365C456.252 274.568 453.174 271.49 449.377 271.49Z"
        fill="#F4F4F4"
      />
      <path
        d="M388.447 324.26H377.383C376.709 324.26 376.163 324.806 376.163 325.48V350.001C376.163 350.674 376.709 351.221 377.383 351.221H388.447C389.12 351.221 389.666 350.674 389.666 350.001V325.48C389.666 324.806 389.12 324.26 388.447 324.26Z"
        fill="white"
      />
      <path
        d="M415.109 298.524H404.046C403.372 298.524 402.826 299.071 402.826 299.744V350.001C402.826 350.674 403.372 351.221 404.046 351.221H415.109C415.783 351.221 416.329 350.674 416.329 350.001V299.744C416.329 299.071 415.783 298.524 415.109 298.524Z"
        fill="white"
      />
      <path
        d="M441.771 318.216H430.708C430.034 318.216 429.488 318.762 429.488 319.436V350.001C429.488 350.674 430.034 351.221 430.708 351.221H441.771C442.445 351.221 442.991 350.674 442.991 350.001V319.436C442.991 318.762 442.445 318.216 441.771 318.216Z"
        fill="white"
      />
      <path
        d="M308.46 324.26H297.396C296.723 324.26 296.177 324.806 296.177 325.48V350.001C296.177 350.674 296.723 351.221 297.396 351.221H308.46C309.133 351.221 309.68 350.674 309.68 350.001V325.48C309.68 324.806 309.133 324.26 308.46 324.26Z"
        fill="white"
      />
      <path
        d="M335.122 298.524H324.059C323.385 298.524 322.839 299.071 322.839 299.744V350.001C322.839 350.674 323.385 351.221 324.059 351.221H335.122C335.796 351.221 336.342 350.674 336.342 350.001V299.744C336.342 299.071 335.796 298.524 335.122 298.524Z"
        fill="white"
      />
      <path
        d="M361.785 318.216H350.721C350.048 318.216 349.502 318.762 349.502 319.436V350.001C349.502 350.674 350.048 351.221 350.721 351.221H361.785C362.458 351.221 363.005 350.674 363.005 350.001V319.436C363.005 318.762 362.458 318.216 361.785 318.216Z"
        fill="white"
      />
      <path
        d="M382.337 32.7425C382.337 32.7425 376.009 27.2652 375.136 15.5739C374.458 6.5246 382.34 12.8836 382.34 12.8836C382.34 12.8836 381.915 6.36074 386.581 7.31947C391.246 8.27821 393.429 15.2449 393.429 15.2449"
        fill="#0C0C0C"
      />
      <path
        d="M410.876 9.70776C410.876 9.70776 434.081 13.7793 423.509 44.8832H417.214"
        fill="#0C0C0C"
      />
      <path
        d="M450.258 447.711V472.312H399.956C399.953 472.296 399.95 472.279 399.947 472.263C399.897 471.985 399.838 471.585 399.808 471.101C399.748 470.13 399.803 468.841 400.249 467.539C400.693 466.243 401.526 464.927 403.04 463.882C404.558 462.834 406.794 462.036 410.078 461.84C416.983 461.427 421.15 457.524 423.573 453.757C424.783 451.877 425.562 450.025 426.04 448.644C426.279 447.953 426.442 447.378 426.547 446.974C426.568 446.892 426.587 446.817 426.604 446.749L450.258 447.711Z"
        fill="#0ACAB7"
        stroke="black"
      />
      <path
        d="M454.231 185.191C454.231 185.191 454.07 180.89 454.104 190.648C454.231 227.046 453.018 455.366 453.018 455.366L419.372 455.083L398.99 183.712L454.231 185.191Z"
        fill="#262626"
      />
      <path
        d="M392.803 447.711V472.312H342.502C342.499 472.296 342.496 472.279 342.493 472.262C342.443 471.985 342.384 471.585 342.354 471.101C342.294 470.13 342.348 468.841 342.795 467.539C343.239 466.243 344.071 464.927 345.585 463.882C347.103 462.834 349.339 462.036 352.623 461.84C359.528 461.427 363.696 457.524 366.118 453.757C367.328 451.877 368.107 450.025 368.585 448.644C368.824 447.953 368.988 447.378 369.092 446.974C369.113 446.892 369.132 446.817 369.149 446.749L392.803 447.711Z"
        fill="#0ACAB7"
        stroke="black"
      />
      <path
        d="M362.245 188.017C362.245 188.017 358.042 312.418 358.479 318.498L362.431 454.421L395.522 455.033L400.858 313.58C400.858 313.58 404.355 274.561 413.783 238.328C418.607 219.732 421.51 200.691 422.447 181.502L362.245 188.017Z"
        fill="#262626"
      />
      <path
        d="M405.9 276.218L403.141 234.023C403.141 234.023 400.307 251.565 400.307 266.684C400.307 274.075 401.829 303.335 401.829 303.335L405.9 276.218Z"
        fill="#0A0A0A"
      />
      <path
        d="M384.742 77.2198C384.845 77.2064 385.988 96.1689 408.018 94.5156C423.269 93.3734 428.707 77.1929 429.057 77.1929C427.412 76.8438 425.38 76.3131 424.573 76.1315C422.813 75.7229 421.218 74.7882 420.003 73.4517C418.787 72.1151 418.006 70.44 417.766 68.6493C417.32 65.959 418.076 52.2102 417.843 49.4905L394.433 54.7158C394.76 60.4591 397.049 73.7744 389.025 76.1309C387.689 76.521 386.251 76.8793 384.742 77.2198Z"
        fill="#E98862"
      />
      <path
        opacity="0.52"
        d="M394.104 70.6896C394.471 69.5078 394.707 68.2892 394.809 67.0559C395.066 64.242 395.015 61.4085 394.656 58.6058C399.414 57.9634 403.897 55.9995 407.595 52.9371C408.029 54.5428 410.42 61.5584 409.758 63.0827C408.507 65.9669 402.627 70.6896 394.104 70.6896Z"
        fill="#0C0C0C"
      />
      <path
        d="M398.26 66.1081C407.53 65.899 418.95 60.8155 419.948 48.3183L420.848 37.0415C421.845 24.5437 416.089 13.8888 404.321 12.9508C392.553 12.0117 382.949 21.4413 381.951 33.9391L381.553 38.9315C381.446 40.6479 381.456 42.3696 381.583 44.0847C381.889 48.6203 382.365 55.5186 385.106 60.3447C387.694 64.9011 392.337 66.2414 398.26 66.1081Z"
        fill="#E98862"
      />
      <path
        opacity="0.52"
        d="M394.75 54.3881C392.843 54.3467 390.972 53.8577 389.288 52.9604C389.218 52.9245 389.164 52.8622 389.14 52.7871C389.115 52.712 389.122 52.6303 389.158 52.5599C389.194 52.4895 389.256 52.4362 389.331 52.4118C389.406 52.3874 389.488 52.3938 389.558 52.4296C393.192 54.275 396.604 54.2688 399.425 52.4125C399.482 52.3729 399.541 52.3366 399.602 52.3037C399.673 52.2691 399.754 52.2641 399.829 52.2898C399.904 52.3156 399.965 52.3699 400 52.441C400.035 52.512 400.04 52.5939 400.014 52.6686C399.988 52.7433 399.934 52.8047 399.863 52.8393C399.84 52.8515 399.801 52.8766 399.753 52.9102C398.269 53.8896 396.528 54.4041 394.75 54.3881Z"
        fill="#0C0C0C"
      />
      <path
        opacity="0.52"
        d="M394.65 57.2116C394.305 57.2099 393.961 57.1786 393.621 57.1181C393.583 57.1113 393.546 57.0971 393.513 57.0761C393.48 57.0551 393.451 57.0278 393.429 56.9958C393.406 56.9638 393.39 56.9276 393.382 56.8894C393.373 56.8513 393.372 56.8118 393.379 56.7732C393.386 56.7347 393.4 56.6978 393.421 56.6648C393.442 56.6318 393.469 56.6032 393.501 56.5807C393.534 56.5583 393.57 56.5423 393.608 56.5338C393.646 56.5253 393.686 56.5243 393.724 56.5311C395.768 56.8882 396.813 56.0108 396.857 55.9728C396.917 55.9208 396.994 55.8945 397.073 55.8997C397.152 55.9049 397.226 55.9412 397.278 56.0007C397.33 56.0601 397.356 56.1378 397.351 56.2166C397.346 56.2954 397.309 56.369 397.25 56.421C396.501 56.9771 395.582 57.2564 394.65 57.2116Z"
        fill="#0C0C0C"
      />
      <path
        d="M385.442 41.6034C386.245 41.6034 386.896 40.9525 386.896 40.1494C386.896 39.3464 386.245 38.6954 385.442 38.6954C384.639 38.6954 383.988 39.3464 383.988 40.1494C383.988 40.9525 384.639 41.6034 385.442 41.6034Z"
        fill="#0C0C0C"
      />
      <path
        d="M400.14 41.6952C400.943 41.6952 401.594 41.0443 401.594 40.2412C401.594 39.4382 400.943 38.7872 400.14 38.7872C399.337 38.7872 398.686 39.4382 398.686 40.2412C398.686 41.0443 399.337 41.6952 400.14 41.6952Z"
        fill="#0C0C0C"
      />
      <path
        d="M418.913 52.067C422.489 52.3525 425.694 48.7585 425.978 45.1822C426.263 41.6059 423.522 39.4029 419.946 39.1173L417.912 41.3668L415.838 51.8224L418.913 52.067Z"
        fill="#E98862"
      />
      <path
        d="M357.869 118.924L357.869 118.924C357.499 114.594 356.785 110.53 356.124 106.771L356.118 106.736C355.454 102.957 354.848 99.5008 354.685 96.352C354.522 93.2072 354.803 90.4117 355.884 87.95C356.96 85.4981 358.848 83.3338 361.976 81.4812L361.977 81.4811C363.08 80.8271 365.096 80.1846 367.614 79.5925C370.113 79.0048 373.049 78.4793 375.95 78.0397C381.283 77.2319 386.45 76.7212 388.537 76.6421C388.538 76.684 388.539 76.7282 388.541 76.7746C388.554 77.1882 388.59 77.7775 388.699 78.4811C388.915 79.8865 389.419 81.7585 390.598 83.6031C392.982 87.3314 398.025 90.7972 408.545 90.3019L408.545 90.3019C416.347 89.9335 420.472 86.4236 422.624 82.9605C423.693 81.2409 424.267 79.5473 424.575 78.2845C424.729 77.6523 424.817 77.126 424.866 76.7552C424.87 76.7232 424.874 76.6923 424.878 76.6627C425.081 76.6765 425.342 76.6947 425.652 76.7169C426.438 76.7732 427.539 76.8553 428.796 76.9586C431.313 77.1654 434.449 77.4565 436.949 77.7947C441.012 78.3448 446.035 79.787 450.582 82.1001C455.137 84.4166 459.16 87.5781 461.302 91.5354L461.741 91.2975L461.302 91.5354C461.925 92.6872 462.194 94.0627 462.199 95.7732C462.204 97.488 461.944 99.5068 461.535 101.928C461.323 103.186 461.071 104.548 460.797 106.026C460.022 110.218 459.076 115.336 458.379 121.598C456.44 139.032 454.152 177.641 453.583 187.518H362.575L362.56 187.295C361.798 175.818 358.549 126.91 357.869 118.924Z"
        fill="#0ACAB7"
        stroke="black"
      />
      <path
        d="M415.738 46.0773C415.738 46.0773 415.715 28.2973 410.421 26.8445C406.895 25.8772 397.886 30.3664 389.961 28.2973C386.492 27.3918 383.099 28.038 382.649 29.6743C382.471 30.3224 380.915 20.735 386.896 13.9389C391.658 8.52827 406.096 7.8777 412.493 10.1853C430.201 16.5742 420.632 39.9464 420.632 39.9464L419.418 45.9948L415.738 46.0773Z"
        fill="#0C0C0C"
      />
      <g opacity="0.52">
        <path
          d="M392.869 50.0663H392.845C391.693 49.9777 389.77 49.6995 389.835 48.8373C389.891 48.1232 392.441 40.5621 392.732 39.7024C392.757 39.6285 392.811 39.5675 392.881 39.5329C392.951 39.4982 393.031 39.4928 393.105 39.5178C393.179 39.5428 393.24 39.5961 393.275 39.666C393.31 39.736 393.315 39.8168 393.29 39.8908C392.158 43.2396 390.46 48.3971 390.422 48.8826C390.52 49.0954 391.697 49.387 392.891 49.4793C392.966 49.4861 393.036 49.5215 393.086 49.5782C393.135 49.6348 393.162 49.7085 393.159 49.7839C393.156 49.8593 393.124 49.9308 393.07 49.9836C393.016 50.0364 392.944 50.0664 392.869 50.0676V50.0663Z"
          fill="#0C0C0C"
        />
      </g>
      <path
        d="M389.528 33.8516C388.598 33.4671 387.583 33.3351 386.586 33.4688C386.078 33.5326 385.584 33.673 385.118 33.8852C384.642 34.0992 384.195 34.372 383.787 34.6972L383.755 34.7217C383.65 34.8032 383.517 34.8403 383.385 34.825C383.253 34.8098 383.132 34.7434 383.048 34.6401C382.964 34.5368 382.924 34.4049 382.936 34.2724C382.949 34.14 383.012 34.0177 383.114 33.9317C383.566 33.5115 384.069 33.1502 384.611 32.8562C385.162 32.5554 385.754 32.3388 386.368 32.2135C386.984 32.0817 387.614 32.0348 388.242 32.0741C388.889 32.108 389.527 32.234 390.138 32.4483C390.328 32.5169 390.483 32.6578 390.57 32.8402C390.656 33.0227 390.667 33.2319 390.6 33.4225C390.533 33.613 390.393 33.7693 390.212 33.8573C390.03 33.9454 389.821 33.958 389.63 33.8926C389.611 33.8858 389.593 33.8791 389.576 33.8712L389.528 33.8516Z"
        fill="#0C0C0C"
      />
      <path
        d="M398.066 32.57C399.279 32.1527 400.581 32.0717 401.836 32.3358C402.45 32.461 403.043 32.6776 403.593 32.9784C404.135 33.2724 404.639 33.634 405.09 34.0545C405.19 34.1409 405.253 34.2627 405.264 34.3942C405.276 34.5258 405.236 34.6567 405.153 34.7594C405.07 34.862 404.95 34.9284 404.819 34.9444C404.688 34.9604 404.556 34.9248 404.451 34.8451L404.417 34.8195C404.009 34.494 403.562 34.2212 403.086 34.0075C402.621 33.795 402.126 33.6544 401.618 33.5905C400.621 33.4567 399.606 33.5888 398.676 33.9732L398.633 33.9922C398.447 34.0754 398.236 34.0814 398.045 34.0088C397.855 33.9361 397.701 33.7908 397.618 33.6048C397.534 33.4188 397.528 33.2074 397.601 33.017C397.674 32.8266 397.819 32.6728 398.005 32.5895C398.025 32.584 398.045 32.5761 398.066 32.57Z"
        fill="#0C0C0C"
      />
      <path
        d="M399.307 14.8523C400.383 11.0076 399.138 7.29821 396.526 6.56722C393.914 5.83623 390.924 8.36044 389.848 12.2052C388.772 16.05 390.017 19.7593 392.629 20.4903C395.241 21.2213 398.231 18.6971 399.307 14.8523Z"
        fill="#0C0C0C"
      />
      <path
        d="M149.403 30.1984H7.50455C3.3599 30.1984 0 33.5581 0 37.7025V106.818C0 110.962 3.3599 114.322 7.50455 114.322H149.403C153.548 114.322 156.908 110.962 156.908 106.818V37.7025C156.908 33.5581 153.548 30.1984 149.403 30.1984Z"
        fill="#F4F4F4"
      />
      <path
        d="M95.5291 77.9663H85.5132C84.9037 77.9663 84.4095 78.4604 84.4095 79.07V101.268C84.4095 101.878 84.9037 102.372 85.5132 102.372H95.5291C96.1387 102.372 96.6328 101.878 96.6328 101.268V79.07C96.6328 78.4604 96.1387 77.9663 95.5291 77.9663Z"
        fill="white"
      />
      <path
        d="M119.665 54.6699H109.649C109.04 54.6699 108.545 55.164 108.545 55.7736V101.268C108.545 101.878 109.04 102.372 109.649 102.372H119.665C120.275 102.372 120.769 101.878 120.769 101.268V55.7736C120.769 55.164 120.275 54.6699 119.665 54.6699Z"
        fill="white"
      />
      <path
        d="M143.8 72.4958H133.784C133.175 72.4958 132.681 72.99 132.681 73.5995V101.268C132.681 101.878 133.175 102.372 133.784 102.372H143.8C144.41 102.372 144.904 101.878 144.904 101.268V73.5995C144.904 72.99 144.41 72.4958 143.8 72.4958Z"
        fill="white"
      />
      <path
        d="M23.1233 77.9663H13.1074C12.4979 77.9663 12.0037 78.4604 12.0037 79.07V101.268C12.0037 101.878 12.4979 102.372 13.1074 102.372H23.1233C23.7328 102.372 24.227 101.878 24.227 101.268V79.07C24.227 78.4604 23.7328 77.9663 23.1233 77.9663Z"
        fill="white"
      />
      <path
        d="M47.2585 54.6699H37.2427C36.6331 54.6699 36.139 55.164 36.139 55.7736V101.268C36.139 101.878 36.6331 102.372 37.2427 102.372H47.2585C47.8681 102.372 48.3622 101.878 48.3622 101.268V55.7736C48.3622 55.164 47.8681 54.6699 47.2585 54.6699Z"
        fill="white"
      />
      <path
        d="M71.3939 72.4958H61.378C60.7684 72.4958 60.2743 72.99 60.2743 73.5995V101.268C60.2743 101.878 60.7684 102.372 61.378 102.372H71.3939C72.0034 102.372 72.4976 101.878 72.4976 101.268V73.5995C72.4976 72.99 72.0034 72.4958 71.3939 72.4958Z"
        fill="white"
      />
      <path
        d="M337.565 0.61145H80.3506C74.8595 0.61145 70.4081 5.06263 70.4081 10.5534V313.381C70.4081 318.872 74.8595 323.323 80.3506 323.323H337.565C343.056 323.323 347.507 318.872 347.507 313.381V10.5534C347.507 5.06263 343.056 0.61145 337.565 0.61145Z"
        fill="white"
      />
      <path
        d="M337.565 323.935H80.3506C77.5526 323.931 74.87 322.818 72.8914 320.84C70.9129 318.862 69.7999 316.179 69.7967 313.381V10.5534C69.7999 7.75548 70.9129 5.07305 72.8914 3.0946C74.87 1.11615 77.5526 0.0032365 80.3506 0L337.565 0C340.363 0.0032365 343.046 1.11615 345.024 3.0946C347.003 5.07305 348.116 7.75548 348.119 10.5534V313.381C348.116 316.179 347.003 318.862 345.024 320.84C343.046 322.818 340.363 323.931 337.565 323.935ZM80.3506 1.22288C77.8768 1.22579 75.5051 2.20976 73.7558 3.95895C72.0066 5.70814 71.0225 8.07971 71.0196 10.5534V313.381C71.0225 315.855 72.0066 318.226 73.7558 319.976C75.5051 321.725 77.8768 322.709 80.3506 322.712H337.565C340.039 322.709 342.41 321.725 344.16 319.976C345.909 318.226 346.893 315.855 346.896 313.381V10.5534C346.893 8.07971 345.909 5.70814 344.16 3.95895C342.41 2.20976 340.039 1.22579 337.565 1.22288H80.3506Z"
        fill="#292A2E"
      />
      <path
        d="M238.08 49.436C241.372 49.436 244.04 46.7677 244.04 43.4763C244.04 40.1848 241.372 37.5166 238.08 37.5166C234.789 37.5166 232.12 40.1848 232.12 43.4763C232.12 46.7677 234.789 49.436 238.08 49.436Z"
        fill="#367CFF"
      />
      <path
        d="M238.08 49.436C241.372 49.436 244.04 46.7677 244.04 43.4763C244.04 40.1848 241.372 37.5166 238.08 37.5166C234.789 37.5166 232.12 40.1848 232.12 43.4763C232.12 46.7677 234.789 49.436 238.08 49.436Z"
        fill="#0ACAB7"
      />
      <path
        d="M238.08 79.8148C241.372 79.8148 244.04 77.1465 244.04 73.8551C244.04 70.5636 241.372 67.8954 238.08 67.8954C234.789 67.8954 232.12 70.5636 232.12 73.8551C232.12 77.1465 234.789 79.8148 238.08 79.8148Z"
        fill="#292A2E"
      />
      <path
        opacity="0.5"
        d="M238.08 110.193C241.372 110.193 244.04 107.525 244.04 104.234C244.04 100.942 241.372 98.274 238.08 98.274C234.789 98.274 232.12 100.942 232.12 104.234C232.12 107.525 234.789 110.193 238.08 110.193Z"
        fill="#367CFF"
      />
      <path
        opacity="0.2"
        d="M238.08 140.572C241.372 140.572 244.04 137.904 244.04 134.613C244.04 131.321 241.372 128.653 238.08 128.653C234.789 128.653 232.12 131.321 232.12 134.613C232.12 137.904 234.789 140.572 238.08 140.572Z"
        fill="#367CFF"
      />
      <path
        d="M119.776 89.0444C119.778 96.3086 122.032 103.394 126.229 109.323C130.425 115.253 136.356 119.737 143.206 122.156L133.572 145.645C120.322 140.651 109.244 131.168 102.268 118.847C95.2926 106.526 92.861 92.1475 95.3973 78.2178C97.9336 64.2881 105.277 51.6897 116.148 42.6176C127.019 33.5456 140.729 28.575 154.888 28.5719V53.935C145.576 53.935 136.645 57.634 130.061 64.2183C123.476 70.8025 119.777 79.7327 119.776 89.0444Z"
        fill="#292A2E"
      />
      <path
        d="M215.364 89.0444H190C190 79.7327 186.3 70.8025 179.716 64.2183C173.131 57.634 164.2 53.935 154.888 53.935V28.5719C170.927 28.5729 186.309 34.9444 197.65 46.2849C208.991 57.6255 215.363 73.0063 215.364 89.0444Z"
        fill="#0ACAB7"
      />
      <path
        opacity="0.5"
        d="M215.364 89.0444C215.363 102.747 210.709 116.043 202.166 126.756C193.623 137.469 181.696 144.965 168.337 148.016L164.04 122.947C171.491 120.934 178.072 116.523 182.764 110.395C187.457 104.268 190.001 96.7649 190.002 89.0469L215.364 89.0444Z"
        fill="#B3E8ED"
      />
      <path
        opacity="0.2"
        d="M168.337 148.016C156.767 150.637 144.682 149.813 133.574 145.647L143.208 122.156C149.914 124.509 157.175 124.784 164.04 122.945L168.337 148.016Z"
        fill="#367CFF"
      />
      <path
        d="M320.989 43.9086H251.954C251.84 43.9086 251.73 43.8631 251.649 43.782C251.568 43.701 251.522 43.591 251.522 43.4764C251.522 43.3617 251.568 43.2517 251.649 43.1707C251.73 43.0896 251.84 43.0441 251.954 43.0441H320.989C321.104 43.0441 321.214 43.0896 321.295 43.1707C321.376 43.2517 321.422 43.3617 321.422 43.4764C321.422 43.591 321.376 43.701 321.295 43.782C321.214 43.8631 321.104 43.9086 320.989 43.9086Z"
        fill="#367CFF"
      />
      <path
        d="M320.989 74.2897H251.954C251.84 74.2897 251.73 74.2442 251.649 74.1631C251.568 74.0821 251.522 73.9721 251.522 73.8575C251.522 73.7428 251.568 73.6329 251.649 73.5518C251.73 73.4707 251.84 73.4252 251.954 73.4252H320.989C321.104 73.4252 321.214 73.4707 321.295 73.5518C321.376 73.6329 321.422 73.7428 321.422 73.8575C321.422 73.9721 321.376 74.0821 321.295 74.1631C321.214 74.2442 321.104 74.2897 320.989 74.2897Z"
        fill="#292A2E"
      />
      <g opacity="0.5">
        <path
          d="M320.989 104.666H251.955C251.843 104.662 251.737 104.614 251.659 104.534C251.582 104.453 251.538 104.346 251.538 104.234C251.538 104.122 251.582 104.015 251.659 103.934C251.737 103.854 251.843 103.806 251.955 103.802H320.989C321.047 103.8 321.105 103.809 321.16 103.83C321.214 103.851 321.264 103.882 321.305 103.923C321.347 103.963 321.381 104.011 321.403 104.065C321.426 104.118 321.438 104.176 321.438 104.234C321.438 104.292 321.426 104.35 321.403 104.403C321.381 104.457 321.347 104.505 321.305 104.545C321.264 104.586 321.214 104.617 321.16 104.638C321.105 104.659 321.047 104.668 320.989 104.666Z"
          fill="#367CFF"
        />
      </g>
      <g opacity="0.2">
        <path
          d="M320.989 135.045H251.955C251.843 135.041 251.737 134.993 251.659 134.913C251.582 134.832 251.538 134.725 251.538 134.613C251.538 134.501 251.582 134.394 251.659 134.313C251.737 134.232 251.843 134.185 251.955 134.181H320.989C321.047 134.179 321.105 134.188 321.16 134.209C321.214 134.23 321.264 134.261 321.305 134.301C321.347 134.342 321.381 134.39 321.403 134.444C321.426 134.497 321.438 134.555 321.438 134.613C321.438 134.671 321.426 134.729 321.403 134.782C321.381 134.836 321.347 134.884 321.305 134.924C321.264 134.965 321.214 134.996 321.16 135.017C321.105 135.037 321.047 135.047 320.989 135.045Z"
          fill="#367CFF"
        />
      </g>
      <g opacity="0.1">
        <path
          d="M321.286 300.15H96.6292C94.6759 300.147 92.8033 299.37 91.4222 297.989C90.0411 296.608 89.2643 294.736 89.2622 292.782V178.968C89.2645 177.015 90.0414 175.143 91.4224 173.762C92.8035 172.381 94.676 171.604 96.6292 171.601H321.286C323.24 171.604 325.112 172.38 326.493 173.761C327.874 175.142 328.651 177.015 328.653 178.968V292.782C328.651 294.736 327.875 296.608 326.493 297.989C325.112 299.37 323.24 300.147 321.286 300.15Z"
          fill="#367CFF"
        />
      </g>
      <path
        opacity="0.5"
        d="M119.886 197.419H115.513C114.854 197.419 114.321 197.953 114.321 198.611V282.159C114.321 282.817 114.854 283.35 115.513 283.35H119.886C120.545 283.35 121.078 282.817 121.078 282.159V198.611C121.078 197.953 120.545 197.419 119.886 197.419Z"
        fill="#0ACAB7"
      />
      <path
        d="M113.128 224.409H108.755C108.096 224.409 107.563 224.942 107.563 225.601V282.159C107.563 282.817 108.096 283.351 108.755 283.351H113.128C113.787 283.351 114.32 282.817 114.32 282.159V225.601C114.32 224.942 113.787 224.409 113.128 224.409Z"
        fill="#0ACAB7"
      />
      <path
        opacity="0.5"
        d="M173.965 272.478H169.591C168.933 272.478 168.399 273.011 168.399 273.669V282.159C168.399 282.817 168.933 283.351 169.591 283.351H173.965C174.623 283.351 175.156 282.817 175.156 282.159V273.669C175.156 273.011 174.623 272.478 173.965 272.478Z"
        fill="#B3E8ED"
      />
      <path
        d="M167.207 219.556H162.834C162.175 219.556 161.642 220.089 161.642 220.748V282.159C161.642 282.817 162.175 283.35 162.834 283.35H167.207C167.866 283.35 168.399 282.817 168.399 282.159V220.748C168.399 220.089 167.866 219.556 167.207 219.556Z"
        fill="#0ACAB7"
      />
      <path
        opacity="0.5"
        d="M146.926 231.915H142.552C141.893 231.915 141.36 232.448 141.36 233.107V282.159C141.36 282.817 141.893 283.35 142.552 283.35H146.926C147.584 283.35 148.117 282.817 148.117 282.159V233.107C148.117 232.448 147.584 231.915 146.926 231.915Z"
        fill="#7BDEDB"
      />
      <path
        d="M140.168 249.687H135.794C135.136 249.687 134.602 250.221 134.602 250.879V282.159C134.602 282.817 135.136 283.35 135.794 283.35H140.168C140.826 283.35 141.359 282.817 141.359 282.159V250.879C141.359 250.221 140.826 249.687 140.168 249.687Z"
        fill="#0ACAB7"
      />
      <path
        opacity="0.5"
        d="M255.082 214.039H250.708C250.05 214.039 249.517 214.572 249.517 215.231V282.159C249.517 282.817 250.05 283.351 250.708 283.351H255.082C255.74 283.351 256.274 282.817 256.274 282.159V215.231C256.274 214.572 255.74 214.039 255.082 214.039Z"
        fill="#0ACAB7"
      />
      <path
        d="M248.325 239.557H243.951C243.293 239.557 242.759 240.091 242.759 240.749V282.159C242.759 282.818 243.293 283.351 243.951 283.351H248.325C248.983 283.351 249.517 282.818 249.517 282.159V240.749C249.517 240.091 248.983 239.557 248.325 239.557Z"
        fill="#0ACAB7"
      />
      <path
        opacity="0.5"
        d="M201.004 224.85H196.63C195.972 224.85 195.438 225.384 195.438 226.042V282.159C195.438 282.817 195.972 283.35 196.63 283.35H201.004C201.662 283.35 202.196 282.817 202.196 282.159V226.042C202.196 225.384 201.662 224.85 201.004 224.85Z"
        fill="#0ACAB7"
      />
      <path
        d="M194.246 231.473H189.873C189.214 231.473 188.681 232.007 188.681 232.665V282.159C188.681 282.817 189.214 283.35 189.873 283.35H194.246C194.905 283.35 195.438 282.817 195.438 282.159V232.665C195.438 232.007 194.905 231.473 194.246 231.473Z"
        fill="#0ACAB7"
      />
      <path
        opacity="0.5"
        d="M228.043 197.419H223.669C223.011 197.419 222.477 197.953 222.477 198.611V282.159C222.477 282.817 223.011 283.35 223.669 283.35H228.043C228.701 283.35 229.235 282.817 229.235 282.159V198.611C229.235 197.953 228.701 197.419 228.043 197.419Z"
        fill="#0ACAB7"
      />
      <path
        d="M221.286 201.559H216.912C216.254 201.559 215.72 202.092 215.72 202.751V282.159C215.72 282.817 216.254 283.35 216.912 283.35H221.286C221.944 283.35 222.477 282.817 222.477 282.159V202.751C222.477 202.092 221.944 201.559 221.286 201.559Z"
        fill="#0ACAB7"
      />
      <path
        opacity="0.5"
        d="M282.121 197.419H277.747C277.089 197.419 276.556 197.953 276.556 198.611V282.159C276.556 282.817 277.089 283.35 277.747 283.35H282.121C282.779 283.35 283.313 282.817 283.313 282.159V198.611C283.313 197.953 282.779 197.419 282.121 197.419Z"
        fill="#0ACAB7"
      />
      <path
        d="M275.364 224.409H270.99C270.332 224.409 269.798 224.942 269.798 225.601V282.159C269.798 282.817 270.332 283.351 270.99 283.351H275.364C276.022 283.351 276.556 282.817 276.556 282.159V225.601C276.556 224.942 276.022 224.409 275.364 224.409Z"
        fill="#0ACAB7"
      />
      <path
        opacity="0.5"
        d="M309.16 231.915H304.787C304.128 231.915 303.595 232.448 303.595 233.107V282.159C303.595 282.817 304.128 283.35 304.787 283.35H309.16C309.819 283.35 310.352 282.817 310.352 282.159V233.107C310.352 232.448 309.819 231.915 309.16 231.915Z"
        fill="#0ACAB7"
      />
      <path
        d="M302.403 249.687H298.029C297.371 249.687 296.838 250.221 296.838 250.879V282.159C296.838 282.817 297.371 283.35 298.029 283.35H302.403C303.061 283.35 303.595 282.817 303.595 282.159V250.879C303.595 250.221 303.061 249.687 302.403 249.687Z"
        fill="#0ACAB7"
      />
      <path
        d="M337.187 181.079C334.467 181.075 331.795 180.359 329.437 179.003C327.078 177.648 325.116 175.699 323.743 173.35C322.371 171.001 321.637 168.334 321.614 165.614C321.591 162.894 322.28 160.216 323.612 157.844L360.778 91.7415C361.776 89.947 363.119 88.3674 364.73 87.0934C366.341 85.8193 368.187 84.876 370.163 84.3175C372.139 83.7589 374.206 83.5962 376.245 83.8387C378.284 84.0812 380.256 84.724 382.046 85.7304C383.836 86.7368 385.409 88.0868 386.676 89.703C387.943 91.3191 388.878 93.1696 389.428 95.1481C389.977 97.1267 390.131 99.1943 389.879 101.232C389.627 103.27 388.976 105.238 387.961 107.024L350.795 173.126C349.438 175.542 347.462 177.551 345.07 178.949C342.679 180.347 339.957 181.082 337.187 181.079Z"
        fill="#367CFF"
      />
      <path
        d="M360.015 156.723L359.459 145.451"
        stroke="#0C0C0C"
        stroke-width="0.75"
        stroke-linecap="round"
        stroke-linejoin="round"
      />
      <path
        d="M405.078 126.851L395.462 115.595C395.255 115.353 395.001 115.156 394.716 115.015C394.43 114.875 394.119 114.794 393.801 114.777C393.483 114.761 393.165 114.809 392.867 114.92C392.569 115.03 392.296 115.201 392.065 115.42C391.634 115.86 391.386 116.448 391.371 117.064C391.356 117.68 391.576 118.279 391.986 118.739L394.041 121.144L404.321 128.952L405.078 126.851Z"
        fill="#E98862"
      />
      <path
        d="M389.995 129.818L359.63 131.71C358.411 131.786 357.207 131.408 356.251 130.648C355.295 129.888 354.654 128.801 354.453 127.597L346.95 82.7887C346.836 82.1067 346.867 81.4083 347.04 80.7387C347.213 80.0691 347.524 79.4434 347.955 78.9019C348.385 78.3604 348.924 77.9153 349.537 77.5954C350.15 77.2755 350.824 77.088 351.514 77.0449L381.879 75.1531C383.098 75.0772 384.301 75.4557 385.258 76.2155C386.214 76.9752 386.855 78.0624 387.056 79.2669L394.556 124.074C394.67 124.756 394.64 125.454 394.467 126.124C394.294 126.793 393.983 127.419 393.553 127.961C393.123 128.502 392.584 128.947 391.971 129.267C391.358 129.587 390.685 129.775 389.995 129.818Z"
        fill="#292A2E"
      />
      <path
        d="M394.04 121.144L384.073 116.53C382.973 115.998 381.284 116.049 380.768 117.321C380.538 117.798 380.476 118.338 380.593 118.854C380.71 119.37 380.998 119.832 381.41 120.163C381.402 120.173 381.395 120.183 381.389 120.194C381.386 120.203 381.384 120.212 381.383 120.221L379.687 119.4C379.375 119.249 379.033 119.169 378.686 119.166C378.339 119.163 377.996 119.237 377.681 119.383C377.366 119.529 377.087 119.743 376.865 120.01C376.643 120.276 376.483 120.589 376.396 120.925C376.269 121.463 376.331 122.029 376.573 122.526C376.815 123.024 377.222 123.422 377.724 123.654L378.446 124.004C378.445 124.03 378.449 124.056 378.458 124.081C377.921 123.959 377.359 124.03 376.869 124.281C376.379 124.533 375.994 124.949 375.78 125.456C375.562 126.032 375.57 126.67 375.804 127.24C376.038 127.811 376.479 128.271 377.039 128.528L378.813 129.384C378.779 129.39 378.747 129.404 378.719 129.424C378.691 129.445 378.669 129.471 378.654 129.502C378.637 129.542 378.632 129.586 378.64 129.628C378.141 129.651 377.663 129.832 377.275 130.146C376.887 130.461 376.609 130.891 376.484 131.374C376.356 131.913 376.419 132.478 376.661 132.976C376.903 133.474 377.309 133.872 377.811 134.104L392.93 141.426C395.045 142.45 397.418 142.819 399.744 142.486C402.07 142.152 404.244 141.132 405.986 139.555L411.597 134.48L394.04 121.144Z"
        fill="#E98862"
      />
      <g opacity="0.2">
        <path
          d="M391.252 124.781C391.227 124.831 391.184 124.87 391.13 124.889C391.077 124.907 391.019 124.905 390.968 124.881L381.49 120.478C381.464 120.466 381.441 120.449 381.422 120.428C381.403 120.408 381.388 120.383 381.378 120.356C381.368 120.33 381.364 120.301 381.365 120.273C381.367 120.244 381.373 120.217 381.386 120.191C381.398 120.165 381.415 120.142 381.436 120.123C381.457 120.104 381.481 120.089 381.508 120.079C381.534 120.069 381.563 120.065 381.591 120.066C381.62 120.068 381.647 120.075 381.673 120.087L391.151 124.486C391.203 124.51 391.243 124.554 391.263 124.608C391.283 124.662 391.28 124.721 391.256 124.773L391.252 124.781Z"
          fill="#0C0C0C"
        />
      </g>
      <g opacity="0.2">
        <path
          d="M389.427 129.014C389.402 129.064 389.359 129.103 389.305 129.122C389.252 129.141 389.194 129.138 389.142 129.114L378.569 124.205C378.517 124.18 378.477 124.136 378.457 124.083C378.437 124.029 378.44 123.969 378.464 123.917C378.489 123.867 378.533 123.828 378.587 123.808C378.64 123.789 378.699 123.79 378.751 123.812L389.325 128.722C389.376 128.746 389.417 128.79 389.436 128.844C389.456 128.898 389.454 128.957 389.43 129.009L389.427 129.014Z"
          fill="#0C0C0C"
        />
      </g>
      <g opacity="0.2">
        <path
          d="M387.477 133.607C387.452 133.658 387.409 133.697 387.355 133.716C387.302 133.735 387.244 133.732 387.192 133.708L378.758 129.791C378.732 129.779 378.709 129.762 378.69 129.741C378.671 129.72 378.656 129.696 378.646 129.669C378.636 129.642 378.632 129.614 378.633 129.586C378.635 129.557 378.641 129.529 378.653 129.504C378.666 129.478 378.683 129.455 378.703 129.436C378.724 129.416 378.749 129.402 378.776 129.392C378.802 129.382 378.831 129.378 378.859 129.379C378.888 129.381 378.915 129.387 378.941 129.399L387.376 133.316C387.428 133.34 387.468 133.384 387.487 133.438C387.507 133.492 387.504 133.551 387.48 133.603L387.477 133.607Z"
          fill="#0C0C0C"
        />
      </g>
      <path
        d="M463.517 96.4306L463.517 96.4306L463.52 96.4429L481.031 159.396C481.75 162.268 481.644 165.284 480.723 168.098C479.802 170.914 478.103 173.411 475.823 175.303C473.543 177.195 470.774 178.403 467.837 178.788C464.901 179.174 461.917 178.722 459.227 177.484L394.085 145.532L405.137 121.268L446.715 138.699L447.821 139.163L447.372 138.051L433.645 104.042C431.547 95.6075 436.082 87.1171 444.457 85.0158C448.498 84.0021 452.777 84.6353 456.351 86.776C459.926 88.9167 462.503 92.3895 463.517 96.4306Z"
        fill="#0ACAB7"
        stroke="black"
      />
      <path
        d="M454.697 176.17C454.677 176.166 454.658 176.16 454.64 176.151L393.334 145.961C393.283 145.937 393.244 145.893 393.225 145.84C393.206 145.787 393.208 145.729 393.231 145.678L404.685 120.53C404.708 120.478 404.751 120.438 404.803 120.417C404.856 120.397 404.914 120.398 404.966 120.42L445.965 137.253L437.851 112.815C437.843 112.788 437.841 112.759 437.844 112.731C437.847 112.703 437.856 112.676 437.87 112.651C437.884 112.626 437.902 112.604 437.925 112.587C437.947 112.569 437.972 112.556 438 112.548C438.027 112.541 438.056 112.538 438.084 112.542C438.112 112.545 438.139 112.554 438.164 112.568C438.189 112.581 438.211 112.6 438.228 112.622C438.246 112.644 438.259 112.67 438.267 112.697L446.503 137.568C446.514 137.607 446.514 137.648 446.503 137.687C446.491 137.727 446.469 137.762 446.438 137.789C446.408 137.816 446.37 137.834 446.33 137.84C446.29 137.847 446.248 137.842 446.211 137.826L404.992 120.9L393.713 145.663L454.828 175.76C454.875 175.783 454.912 175.822 454.932 175.87C454.952 175.918 454.955 175.971 454.939 176.021C454.923 176.07 454.89 176.112 454.846 176.139C454.801 176.167 454.749 176.177 454.697 176.168V176.17Z"
        fill="#0C0C0C"
      />
      <path
        d="M453.649 141.142C453.631 141.139 453.614 141.134 453.597 141.127L446.208 137.825C446.182 137.813 446.159 137.797 446.139 137.776C446.12 137.756 446.105 137.731 446.095 137.705C446.084 137.679 446.08 137.65 446.08 137.622C446.081 137.594 446.088 137.566 446.099 137.54C446.111 137.514 446.127 137.491 446.148 137.471C446.168 137.452 446.193 137.436 446.219 137.426C446.246 137.416 446.274 137.411 446.302 137.412C446.331 137.413 446.358 137.419 446.384 137.431L453.774 140.732C453.821 140.754 453.859 140.792 453.881 140.84C453.902 140.887 453.906 140.941 453.891 140.99C453.876 141.04 453.844 141.083 453.8 141.111C453.756 141.139 453.703 141.15 453.652 141.142H453.649Z"
        fill="#0C0C0C"
      />
      <path
        d="M370.112 97.0304C369.797 96.6358 369.363 96.3536 368.875 96.2262C368.386 96.0988 367.87 96.133 367.402 96.3236C367.399 96.2945 367.389 96.2667 367.372 96.2425C367.356 96.2184 367.334 96.1986 367.308 96.185C367.282 96.1714 367.253 96.1643 367.224 96.1643C367.194 96.1644 367.166 96.1716 367.14 96.1854L368.415 94.6446C368.807 94.1893 369.016 93.6046 369.001 93.004C368.987 92.4033 368.75 91.8295 368.337 91.3935C367.935 90.9962 367.403 90.7575 366.839 90.7215C366.276 90.6854 365.718 90.8544 365.269 91.1973C365.269 91.174 365.247 91.1569 365.238 91.1361L365.759 90.5057C366.117 90.0887 366.321 89.5615 366.337 89.0122C366.353 88.4629 366.18 87.9247 365.847 87.4877C365.629 87.2148 365.354 86.9938 365.04 86.8408C364.727 86.6878 364.383 86.6066 364.034 86.6032C363.686 86.5998 363.34 86.6742 363.024 86.8211C362.708 86.968 362.428 87.1836 362.205 87.4522L361.001 88.9074C360.994 88.9001 360.995 88.8885 360.987 88.8818C360.979 88.875 360.963 88.8763 360.952 88.8695C361.192 88.3962 361.264 87.8553 361.156 87.3357C361.048 86.8161 360.767 86.3486 360.358 86.0098C359.36 85.067 357.802 85.7237 357.024 86.6653L349.663 95.3997L349.874 95.0047L350.747 91.9524C350.923 91.378 350.88 90.7587 350.626 90.2143C350.372 89.67 349.924 89.2393 349.371 89.0059C349.067 88.889 348.742 88.8367 348.417 88.8521C348.093 88.8675 347.774 88.9505 347.483 89.0956C347.192 89.2407 346.934 89.4448 346.726 89.6949C346.518 89.9451 346.365 90.2358 346.275 90.5485L342.207 104.783L341.22 108.239C340.746 109.897 340.937 111.674 341.753 113.194C342.569 114.713 343.945 115.854 345.589 116.374L346.664 116.715C348.904 117.425 351.305 117.449 353.559 116.785C355.813 116.122 357.818 114.8 359.316 112.99L370.025 100.048C370.383 99.631 370.587 99.1039 370.603 98.5546C370.619 98.0053 370.446 97.4672 370.112 97.0304Z"
        fill="#E98862"
      />
      <g opacity="0.2">
        <path
          d="M353.922 97.1527C353.966 97.1883 354.021 97.2054 354.078 97.2004C354.134 97.1953 354.186 97.1686 354.223 97.1258L361.01 89.1862C361.03 89.1649 361.046 89.1398 361.056 89.1122C361.066 89.0847 361.071 89.0554 361.069 89.0261C361.068 88.9968 361.06 88.9681 361.047 88.9417C361.034 88.9154 361.016 88.892 360.994 88.8729C360.971 88.8538 360.945 88.8394 360.917 88.8307C360.889 88.8219 360.86 88.8189 360.831 88.8219C360.802 88.8249 360.773 88.8339 360.748 88.8481C360.722 88.8624 360.7 88.8817 360.682 88.905L353.894 96.8445C353.876 96.8661 353.862 96.8912 353.853 96.9183C353.844 96.9453 353.84 96.9739 353.843 97.0023C353.845 97.0307 353.853 97.0584 353.866 97.0838C353.879 97.1092 353.896 97.1317 353.918 97.1502L353.922 97.1527Z"
          fill="#0C0C0C"
        />
      </g>
      <g opacity="0.2">
        <path
          d="M357.342 100.243C357.386 100.278 357.442 100.296 357.498 100.291C357.554 100.286 357.606 100.259 357.643 100.216L365.219 91.3556C365.238 91.334 365.252 91.3089 365.261 91.2818C365.27 91.2547 365.273 91.2262 365.271 91.1978C365.269 91.1694 365.261 91.1417 365.248 91.1163C365.235 91.0909 365.217 91.0683 365.195 91.0499C365.151 91.0143 365.095 90.997 365.038 91.0014C364.981 91.0058 364.928 91.0317 364.89 91.0737L357.314 99.9341C357.296 99.9557 357.282 99.9807 357.273 100.008C357.264 100.035 357.26 100.063 357.263 100.092C357.265 100.12 357.273 100.148 357.286 100.173C357.299 100.199 357.316 100.221 357.338 100.24L357.342 100.243Z"
          fill="#0C0C0C"
        />
      </g>
      <g opacity="0.2">
        <path
          d="M361.025 103.611C361.069 103.647 361.125 103.664 361.181 103.659C361.237 103.654 361.289 103.627 361.326 103.584L367.369 96.5168C367.389 96.4955 367.405 96.4703 367.415 96.4428C367.425 96.4153 367.43 96.386 367.428 96.3566C367.427 96.3273 367.419 96.2986 367.406 96.2723C367.393 96.246 367.375 96.2225 367.353 96.2034C367.331 96.1843 367.305 96.17 367.277 96.1612C367.249 96.1525 367.219 96.1495 367.19 96.1525C367.161 96.1555 367.133 96.1644 367.107 96.1787C367.081 96.193 367.059 96.2123 367.041 96.2355L360.997 103.304C360.979 103.325 360.964 103.35 360.956 103.378C360.947 103.405 360.943 103.433 360.946 103.462C360.948 103.49 360.956 103.518 360.969 103.543C360.982 103.569 361 103.591 361.022 103.609L361.025 103.611Z"
          fill="#0C0C0C"
        />
      </g>
      <path
        d="M365.27 112.54L353.203 166.8C352.517 171.044 350.174 174.842 346.688 177.358C343.202 179.874 338.859 180.902 334.615 180.216C330.371 179.53 326.573 177.187 324.057 173.701C321.541 170.215 320.513 165.873 321.199 161.629L337.767 103.659"
        fill="#0ACAB7"
      />
      <path
        d="M354.142 156.723L360.946 131.73"
        stroke="#0C0C0C"
        stroke-width="0.75"
        stroke-linecap="round"
        stroke-linejoin="round"
      />
      <path
        d="M469.105 474H43.4436C43.2815 474 43.1259 473.936 43.0113 473.821C42.8966 473.706 42.8322 473.551 42.8322 473.389C42.8322 473.226 42.8966 473.071 43.0113 472.956C43.1259 472.842 43.2815 472.777 43.4436 472.777H469.105C469.267 472.777 469.422 472.842 469.537 472.956C469.652 473.071 469.716 473.226 469.716 473.389C469.716 473.551 469.652 473.706 469.537 473.821C469.422 473.936 469.267 474 469.105 474Z"
        fill="#292A2E"
      />
    </svg>